<?xml version="1.0" encoding="UTF-8"?>
<!DOCTYPE svg PUBLIC "-//W3C//DTD SVG 1.1//EN" "http://www.w3.org/Graphics/SVG/1.1/DTD/svg11.dtd">
<!-- Creator: CorelDRAW X7 -->
<svg xmlns="http://www.w3.org/2000/svg" xml:space="preserve" width="4.2334mm" height="4.2334mm" version="1.1" style="shape-rendering:geometricPrecision; text-rendering:geometricPrecision; image-rendering:optimizeQuality; fill-rule:evenodd; clip-rule:evenodd"
viewBox="0 0 423 423"
 xmlns:xlink="http://www.w3.org/1999/xlink">
 <defs>
  <style type="text/css">
   <![CDATA[
    .fil0 {fill:#FEFEFE}
   ]]>
  </style>
 </defs>
 <g id="Capa_x0020_1">
  <metadata id="CorelCorpID_0Corel-Layer"/>
  <path class="fil0" d="M423 212c0,56 -22,110 -62,149 -39,40 -93,62 -149,62 -56,0 -110,-22 -150,-62 -40,-39 -62,-93 -62,-149 0,-56 22,-110 62,-150 40,-40 94,-62 150,-62 56,0 110,22 149,62 40,40 62,94 62,150zm-211 -106c-4,0 -7,1 -10,2 -3,1 -6,3 -8,6 -2,2 -4,5 -5,8 -1,3 -1,7 -1,10l9 93c0,4 2,7 5,9 2,3 6,4 10,4 3,0 7,-1 10,-4 2,-2 4,-5 4,-9l9 -93c1,-3 0,-7 -1,-10 -1,-3 -2,-6 -5,-8 -2,-3 -5,-5 -8,-6 -3,-1 -6,-2 -9,-2zm0 159c-7,0 -14,2 -19,7 -5,5 -8,12 -8,19 0,7 3,14 8,19 5,5 12,7 19,7 7,0 13,-2 18,-7 5,-5 8,-12 8,-19 0,-7 -3,-14 -8,-19 -5,-5 -11,-7 -18,-7z"/>
 </g>
</svg>
